#!OML:ASF I:\Actors\actors\Patient Classification 1\Patient 1\Session 1\Subject1.ASF
:FULLY-SPECIFIED
:DEGREES
866
root 0.725735 17.5418 8.76659 9.56324 -9.5476 -9.8715
lowerback 0.532938 2.59945 7.23524
upperback -8.6308 3.96456 0.967842
thorax -9.04877 1.43459 -3.31697
lowerneck -13.7934 0.601167 6.25637
upperneck 25.1092 -0.104187 -2.39648
head 10.2954 0.258534 -1.92711
rclavicle -1.20265e-014 -2.70347e-014
rhumerus 69.1318 53.9841 -11.935
rradius 110.988
rwrist -49.3891
rhand 13.3348 -23.2512
rfingers 7.12502
rthumb 38.282 -48.9732
lclavicle -1.20265e-014 -2.70347e-014
lhumerus 29.8168 -59.42 23.6435
lradius 89.7601
lwrist 66.1391
lhand 14.1748 -15.4732
lfingers 7.12502
lthumb 39.0743 10.0255
rfemur -7.66675 25.2188 24.6331
rtibia 3.18013
rfoot -8.25161 -17.1138
rtoes -2.2981
lfemur 4.75825 -39.4316 -11.573
ltibia -3.64329
lfoot -24.373 53.4553
ltoes 16.1375
867
root 0.723502 17.5379 8.77037 9.38196 -8.93866 -9.90714
lowerback 0.539727 2.38189 6.99407
upperback -8.5587 3.67083 1.16146
thorax -9.0268 1.32011 -2.95687
lowerneck -13.9156 0.506606 5.83525
upperneck 25.2742 -0.175065 -2.26691
head 10.3749 0.20332 -1.82146
rclavicle 3.35946e-014 1.74931e-014
rhumerus 69.1546 55.0154 -9.17396
rradius 113.677
rwrist -49.0975
rhand 15.1376 -22.256
rfingers 7.12502
rthumb 39.9812 -47.4877
lclavicle 3.35946e-014 1.74931e-014
lhumerus 29.711 -59.2178 24.0087
lradius 89.4453
lwrist 66.0044
lhand 13.9915 -15.3829
lfingers 7.12502
lthumb 38.9015 10.1652
rfemur -7.31895 25.16 24.8101
rtibia 3.06291
rfoot -8.38513 -17.6208
rtoes -1.93042
lfemur 4.93994 -40.0355 -11.644
ltibia -3.67956
lfoot -24.2301 53.5451
ltoes 15.7981
868
root 0.722244 17.5343 8.77189 9.20257 -8.22589 -9.96493
lowerback 0.564576 2.24301 6.84932
upperback -8.50407 3.48309 1.243
thorax -9.01017 1.24488 -2.77741
lowerneck -14.1876 0.280324 5.43103
upperneck 25.6778 -0.495645 -1.9582
head 10.5629 0.0598611 -1.69072
rclavicle -1.31198e-014 2.46493e-014
rhumerus 67.5985 55.9817 -7.69062
rradius 115.602
rwrist -48.5425
rhand 15.9791 -21.7624
rfingers 7.12502
rthumb 40.7724 -46.7507
lclavicle -1.31198e-014 2.46493e-014
lhumerus 30.161 -59.1238 23.9564
lradius 89.0856
lwrist 65.7296
lhand 13.97 -15.5165
lfingers 7.12502
lthumb 38.8812 10.0374
rfemur -7.00419 25.0036 25.0022
rtibia 2.968
rfoot -8.56543 -18.1139
rtoes -1.40973
lfemur 4.93123 -40.3542 -11.5348
ltibia -3.64747
lfoot -23.6748 53.306
ltoes 15.2477
869
root 0.721492 17.5322 8.77223 9.08718 -7.47969 -9.98014
lowerback 0.572041 2.09214 6.68689
upperback -8.45053 3.27605 1.31538
thorax -8.98495 1.16131 -2.59551
lowerneck -14.47 0.0899096 5.10128
upperneck 25.9349 -0.758517 -1.74177
head 10.7041 -0.06271 -1.59655
rclavicle 1.6201e-014 3.02153e-014
rhumerus 65.0752 56.6365 -7.09511
rradius 116.639
rwrist -48.1495
rhand 16.3547 -21.4703
rfingers 7.12502
rthumb 41.1253 -46.3467
lclavicle 1.6201e-014 3.02153e-014
lhumerus 30.3549 -58.9433 24.0962
lradius 88.8164
lwrist 65.3432
lhand 14.1438 -15.7143
lfingers 7.12502
lthumb 39.0451 9.79277
rfemur -6.82288 24.8707 25.1042
rtibia 2.96775
rfoot -8.82655 -18.6293
rtoes -0.971331
lfemur 4.66947 -40.3937 -11.2747
ltibia -3.57587
lfoot -22.6422 52.8314
ltoes 14.4483
870
root 0.721469 17.5313 8.77189 9.01262 -6.85982 -9.95193
lowerback 0.583979 1.97977 6.50497
upperback -8.41499 3.11885 1.35971
thorax -8.97548 1.10135 -2.43651
lowerneck -14.6534 -0.0789376 4.85503
upperneck 26.0097 -0.987549 -1.587
head 10.7608 -0.171638 -1.53153
rclavicle 1.71949e-014 -1.35174e-014
rhumerus 61.9248 56.9064 -7.18904
rradius 116.835
rwrist -48.5098
rhand 14.907 -22.188
rfingers 7.12502
rthumb 39.7641 -47.4848
lclavicle 1.71949e-014 -1.35174e-014
lhumerus 30.3766 -58.7698 24.2704
lradius 88.7897
lwrist 65.0959
lhand 14.1564 -15.6788
lfingers 7.12502
lthumb 39.057 9.82487
rfemur -6.72406 24.9289 25.1321
rtibia 3.04047
rfoot -9.1817 -19.1965
rtoes -0.353555
lfemur 4.34942 -40.2739 -11.0243
ltibia -3.51713
lfoot -21.5403 52.3188
ltoes 13.5088
871
root 0.722209 17.5329 8.76995 8.95068 -6.34921 -9.87361
lowerback 0.619335 1.94063 6.34457
upperback -8.40617 3.05879 1.32392
thorax -8.99506 1.08237 -2.38271
lowerneck -14.7066 -0.24756 4.73462
upperneck 25.9785 -1.23599 -1.44942
head 10.7523 -0.280598 -1.49446
rclavicle -2.88238e-014 3.97569e-015
rhumerus 57.885 56.5351 -8.60986
rradius 115.42
rwrist -47.6479
rhand 14.5023 -22.1176
rfingers 7.12502
rthumb 39.3829 -47.5269
lclavicle -2.88238e-014 3.97569e-015
lhumerus 30.579 -58.727 24.2475
lradius 88.8954
lwrist 65.1034
lhand 14.1542 -15.5038
lfingers 7.12502
lthumb 39.0549 10.0005
rfemur -6.63443 25.1015 25.0861
rtibia 3.05854
rfoot -9.49938 -19.8057
rtoes 0.290018
lfemur 3.96447 -39.8801 -10.7831
ltibia -3.43277
lfoot -20.4622 51.6073
ltoes 12.4785
872
root 0.724803 17.5365 8.76955 8.86957 -5.92003 -9.81491
lowerback 0.653943 1.93734 6.31671
upperback -8.40277 3.05097 1.24537
thorax -9.00894 1.07718 -2.45143
lowerneck -14.6703 -0.361285 4.72828
upperneck 25.9419 -1.43268 -1.30667
head 10.7266 -0.354019 -1.4672
rclavicle -1.47101e-014 -2.38542e-015
rhumerus 54.0915 55.7793 -10.1999
rradius 113.271
rwrist -47.4288
rhand 14.2154 -22.0702
rfingers 7.12502
rthumb 39.1126 -47.5579
lclavicle -1.47101e-014 -2.38542e-015
lhumerus 30.8033 -58.8087 24.1533
lradius 89.0004
lwrist 65.2183
lhand 14.3438 -15.5765
lfingers 7.12502
lthumb 39.2336 9.87622
rfemur -6.49193 25.2 25.0772
rtibia 3.01727
rfoot -9.60207 -20.3428
rtoes 0.160562
lfemur 3.64687 -39.3203 -10.5629
ltibia -3.37916
lfoot -19.2144 50.8425
ltoes 11.2095
873
root 0.73035 17.5402 8.76991 8.74529 -5.65104 -9.83201
lowerback 0.726557 1.86714 6.45378
upperback -8.37604 2.96987 1.25124
thorax -9.02555 1.0272 -2.51755
lowerneck -14.6119 -0.332764 4.7528
upperneck 25.9686 -1.40977 -1.25461
head 10.7266 -0.334117 -1.44941
rclavicle 3.18055e-015 -3.33958e-014
rhumerus 51.6248 54.6828 -11.2588
rradius 110.528
rwrist -47.401
rhand 13.5846 -22.3868
rfingers 7.12502
rthumb 38.5177 -48.0433
lclavicle 3.18055e-015 -3.33958e-014
lhumerus 30.2587 -58.8317 24.5939
lradius 89.0977
lwrist 65.2825
lhand 14.6283 -15.7785
lfingers 7.12502
lthumb 39.5016 9.59596
rfemur -6.30474 25.1865 25.173
rtibia 2.97068
rfoot -9.53757 -20.673
rtoes -0.503355
lfemur 3.48294 -38.7181 -10.3812
ltibia -3.33083
lfoot -18.0517 50.1657
ltoes 9.93209
874
root 0.737973 17.5431 8.77076 8.60348 -5.60937 -9.7711
lowerback 0.809745 1.76304 6.57331
upperback -8.33563 2.84382 1.28403
thorax -9.03966 0.957676 -2.54197
lowerneck -14.5418 -0.196478 4.85436
upperneck 26.0302 -1.21895 -1.32928
head 10.7413 -0.244874 -1.4685
rclavicle 1.68967e-015 1.03368e-014
rhumerus 50.6609 53.3828 -11.7613
rradius 107.243
rwrist -47.3807
rhand 12.8381 -22.1752
rfingers 7.12502
rthumb 37.8129 -48.0251
lclavicle 1.68967e-015 1.03368e-014
lhumerus 29.0786 -58.7877 25.516
lradius 89.1749
lwrist 65.3369
lhand 14.9775 -15.8297
lfingers 7.12502
lthumb 39.8304 9.44726
rfemur -6.11594 25.1652 25.1564
rtibia 2.89906
rfoot -9.43628 -20.7815
rtoes -0.883939
lfemur 3.48561 -38.3054 -10.4623
ltibia -3.24675
lfoot -17.5553 49.7427
ltoes 9.39188
875
root 0.74695 17.545 8.77254 8.51084 -5.81451 -9.67496
lowerback 0.826629 1.68656 6.71072
upperback -8.30686 2.7487 1.29732
thorax -9.02347 0.901828 -2.59684
lowerneck -14.369 0.00388954 4.97592
upperneck 26.0546 -0.934573 -1.40761
head 10.7259 -0.112097 -1.47888
rclavicle -2.28602e-015 2.3059e-014
rhumerus 50.8213 52.0946 -12.0893
rradius 104.171
rwrist -47.7094
rhand 11.1885 -23.973
rfingers 7.12502
rthumb 36.2527 -50.227
lclavicle -2.28602e-015 2.3059e-014
lhumerus 27.7638 -58.7612 26.5026
lradius 89.248
lwrist 65.4591
lhand 15.4689 -15.684
lfingers 7.12502
lthumb 40.2929 9.45307
rfemur -6.01021 25.1435 25.0493
rtibia 2.85399
rfoot -9.31657 -20.6286
rtoes -1.06032
lfemur 3.64396 -38.1074 -10.7204
ltibia -3.22713
lfoot -17.6407 49.6785
ltoes 9.55597
876
root 0.753965 17.5457 8.77212 8.48106 -6.28655 -9.64342
lowerback 0.822173 1.66096 6.90697
upperback -8.30501 2.72392 1.30479
thorax -9.01661 0.874817 -2.69543
lowerneck -14.1282 0.207655 5.05809
upperneck 26.0951 -0.653096 -1.40723
head 10.7045 0.0252039 -1.45477
rclavicle -1.00386e-014 6.36111e-015
rhumerus 51.6858 50.957 -12.5962
rradius 101.291
rwrist -47.1874
rhand 9.99071 -23.9762
rfingers 7.12502
rthumb 35.1175 -50.5047
lclavicle -1.00386e-014 6.36111e-015
lhumerus 26.578 -58.7986 27.3039
lradius 89.275
lwrist 65.5327
lhand 15.7339 -15.5812
lfingers 7.12502
lthumb 40.542 9.47902
rfemur -6.03864 25.1502 24.9761
rtibia 2.88684
rfoot -9.15722 -20.2401
rtoes -1.5106
lfemur 3.87094 -37.8234 -10.9236
ltibia -3.28552
lfoot -17.9208 49.7859
ltoes 9.95209
877
root 0.757362 17.546 8.77059 8.48276 -7.00127 -9.59494
lowerback 0.863859 1.74775 7.06262
upperback -8.32797 2.846 1.21151
thorax -9.04608 0.916547 -2.89184
lowerneck -13.9746 0.328135 5.19526
upperneck 26.2234 -0.563004 -1.22038
head 10.7279 0.104384 -1.39972
rclavicle -3.43897e-014 1.66979e-014
rhumerus 52.6348 50.1041 -13.6514
rradius 99.2319
rwrist -46.3272
rhand 9.48272 -24.3199
rfingers 7.12502
rthumb 34.6356 -50.9603
lclavicle -3.43897e-014 1.66979e-014
lhumerus 26.1174 -58.9942 27.4017
lradius 89.2531
lwrist 65.6099
lhand 15.2984 -15.5288
lfingers 7.12502
lthumb 40.1325 9.65711
rfemur -6.15203 25.2649 24.8738
rtibia 2.98502
rfoot -8.96315 -19.707
rtoes -2.10732
lfemur 4.14368 -37.4065 -11.1711
ltibia -3.34025
lfoot -18.4086 49.9292
ltoes 10.4942
878
root 0.759847 17.546 8.77045 8.56995 -7.85939 -9.57909
lowerback 0.867303 1.9184 7.24825
upperback -8.36011 3.07437 1.04973
thorax -9.04609 1.00602 -3.18444
lowerneck -13.9474 0.422528 5.32567
upperneck 26.4122 -0.581414 -0.805033
head 10.7976 0.162433 -1.27632
rclavicle 1.47101e-014 -1.66979e-014
rhumerus 53.7117 49.6547 -14.949
rradius 98.2946
rwrist -46.0767
rhand 8.80959 -24.903
rfingers 7.12502
rthumb 33.9964 -51.6876
lclavicle 1.47101e-014 -1.66979e-014
lhumerus 26.2718 -59.2566 26.9191
lradius 89.2403
lwrist 65.6764
lhand 14.6771 -15.5061
lfingers 7.12502
lthumb 39.5476 9.85486
rfemur -6.38158 25.4338 24.7683
rtibia 3.13559
rfoot -8.80378 -19.0323
rtoes -2.38467
lfemur 4.37474 -37.0238 -11.3852
ltibia -3.35498
lfoot -19.1849 50.1603
ltoes 11.3251
879
root 0.760186 17.5448 8.76957 8.76626 -8.77556 -9.56419
lowerback 0.815289 2.11459 7.37561
upperback -8.40682 3.33004 0.89978
thorax -9.02633 1.11436 -3.43172
lowerneck -13.9714 0.529423 5.47049
upperneck 26.5412 -0.573991 -0.444142
head 10.856 0.22654 -1.1707
rclavicle -5.96354e-016 1.35174e-014
rhumerus 55.0057 49.6315 -16.1105
rradius 98.5781
rwrist -46.4043
rhand 8.10168 -25.0106
rfingers 7.12502
rthumb 33.3237 -51.9419
lclavicle -5.96354e-016 1.35174e-014
lhumerus 26.5023 -59.4711 26.4077
lradius 89.2628
lwrist 65.5708
lhand 14.427 -15.608
lfingers 7.12502
lthumb 39.312 9.82189
rfemur -6.77323 25.6409 24.593
rtibia 3.31219
rfoot -8.69429 -18.3034
rtoes -2.35082
lfemur 4.47349 -36.662 -11.5145
ltibia -3.36721
lfoot -20.0404 50.4828
ltoes 12.3035
